<svg height="512pt" viewBox="-15 0 512 512" width="512pt" xmlns="http://www.w3.org/2000/svg"><path d="m14.75 222.839844s-2.753906 185.296875 130.429688 237.226562l54.894531-27.21875v-70.054687zm0 0" fill="#394048"/><path d="m46.789062 247.039062-32.039062-24.199218s-2.753906 185.296875 130.429688 237.226562l14.714843-7.296875c-89.519531-46-108.925781-156.617187-113.105469-205.730469zm0 0" fill="#31363e"/><path d="m467.121094 222.839844s2.753906 185.296875-130.429688 237.226562l-54.894531-27.21875v-70.054687zm0 0" fill="#394048"/><path d="m14.75 222.839844c0-59.617188 23.589844-115.640625 66.425781-157.746094 42.703125-41.976562 99.4375-65.09375 159.761719-65.09375 60.320312 0 117.054688 23.117188 159.757812 65.09375 42.835938 42.105469 66.425782 98.128906 66.425782 157.746094zm0 0" fill="#394048"/><path d="m256.386719.519531c-5.121094-.335937-10.269531-.519531-15.449219-.519531-60.324219 0-117.058594 23.117188-159.761719 65.09375-42.835937 42.105469-66.425781 98.128906-66.425781 157.746094h30.90625c0-59.617188 23.589844-115.640625 66.425781-157.746094 39.03125-38.371094 89.796875-60.972656 144.304688-64.574219zm0 0" fill="#31363e"/><path d="m481.871094 253.164062c0 21.785157-17.660156 39.449219-39.449219 39.449219-21.785156 0-39.449219-17.664062-39.449219-39.449219 0-21.789062 17.664063-39.449218 39.449219-39.449218 21.789063 0 39.449219 17.660156 39.449219 39.449218zm0 0" fill="#e2b3a3"/><path d="m297.78125 408.136719s24.53125 17.359375 38.910156 51.929687c6.824219 16.410156 10.203125 34.179688 10.203125 51.933594h-211.917969c0-17.753906 3.378907-35.523438 10.203126-51.933594 14.382812-34.570312 38.914062-51.929687 38.914062-51.929687zm0 0" fill="#e16668"/><path d="m219.300781 390.179688-35.210937 17.957031 5.496094 24.816406c1.5625 7.0625 7.820312 12.085937 15.050781 12.085937 3.957031 0 7.765625-1.523437 10.632812-4.253906l25.667969-24.445312zm0 0" fill="#e8e8e8"/><path d="m262.570312 390.179688 35.210938 17.957031-5.496094 24.816406c-1.5625 7.0625-7.820312 12.085937-15.050781 12.085937-3.957031 0-7.765625-1.523437-10.628906-4.253906l-25.667969-24.445312zm0 0" fill="#e8e8e8"/><path d="m437.777344 222.839844c0-106.863282-88.128906-193.496094-196.839844-193.496094-108.714844 0-196.84375 86.632812-196.84375 193.496094 0 106.867187 88.128906 193.5 196.84375 193.5 108.710938 0 196.839844-86.632813 196.839844-193.5zm0 0" fill="#f5cdb6"/><path d="m75 222.839844c0-101.753906 79.898438-185.15625 181.386719-192.90625-5.097657-.390625-10.25-.589844-15.449219-.589844-105.710938 0-191.945312 81.910156-196.632812 184.683594-1.574219-.199219-3.191407-.316406-4.855469-.316406-21.785157 0-39.449219 17.664062-39.449219 39.449218 0 21.789063 17.664062 39.449219 39.449219 39.449219 6.074219 0 11.585937-1.375 16.378906-3.824219 27.433594 74.394532 99.953125 127.554688 185.109375 127.554688 5.199219 0 10.351562-.203125 15.449219-.59375-101.488281-7.742188-181.386719-91.152344-181.386719-192.90625zm0 0" fill="#e2b3a3"/><path d="m334.503906 260.039062c-4.265625 0-7.726562-3.460937-7.726562-7.726562v-18.195312c0-4.265626 3.460937-7.726563 7.726562-7.726563 4.269532 0 7.726563 3.460937 7.726563 7.726563v18.195312c0 4.265625-3.457031 7.726562-7.726563 7.726562zm0 0" fill="#394048"/><path d="m346.894531 286.78125h-24.78125c-4.265625 0-7.726562-3.460938-7.726562-7.726562 0-4.269532 3.460937-7.726563 7.726562-7.726563h24.78125c4.265625 0 7.726563 3.457031 7.726563 7.726563 0 4.265624-3.460938 7.726562-7.726563 7.726562zm0 0" fill="#e98e8f"/><path d="m147.367188 260.039062c-4.269532 0-7.726563-3.460937-7.726563-7.726562v-18.195312c0-4.265626 3.457031-7.726563 7.726563-7.726563 4.265624 0 7.722656 3.460937 7.722656 7.726563v18.195312c0 4.265625-3.457032 7.726562-7.722656 7.726562zm0 0" fill="#394048"/><path d="m159.757812 286.78125h-24.78125c-4.265624 0-7.726562-3.460938-7.726562-7.726562 0-4.269532 3.460938-7.726563 7.726562-7.726563h24.78125c4.265626 0 7.726563 3.457031 7.726563 7.726563 0 4.265624-3.460937 7.726562-7.726563 7.726562zm0 0" fill="#e98e8f"/><path d="m240.9375 285.75c-8.753906 0-16.976562-3.660156-22.554688-10.042969-2.808593-3.214843-2.480468-8.097656.734376-10.902343 3.210937-2.808594 8.089843-2.484376 10.902343.730468 2.644531 3.027344 6.625 4.761719 10.917969 4.761719 4.289062 0 8.269531-1.734375 10.917969-4.761719 2.808593-3.214844 7.6875-3.542968 10.902343-.734375 3.210938 2.808594 3.539063 7.691407.730469 10.902344-5.582031 6.386719-13.800781 10.046875-22.550781 10.046875zm0 0" fill="#394048"/><path d="m52.570312 146.398438 26.492188-40.28125s55.855469-16.625 177.328125-17.949219c-5.042969-.054688-10.1875-.085938-15.453125-.085938-132.207031 0-192.777344 18.035157-192.777344 18.035157l-26.496094 40.28125c-10.675781 16.234374.96875 37.832031 20.402344 37.832031h30.90625c-19.433594 0-31.082031-21.597657-20.402344-37.832031zm0 0" fill="#e0b545"/><path d="m433.710938 106.117188v-32.140626c0-14.210937-9.113282-26.851562-22.621094-31.257812-31.148438-10.160156-92.332032-26.066406-170.15625-26.066406-77.820313 0-139.003906 15.90625-170.152344 26.066406-13.507812 4.410156-22.625 17.046875-22.625 31.257812v32.140626zm0 0" fill="#e16668"/><path d="m101.6875 42.71875c29.054688-9.476562 84.25-23.949219 154.699219-25.851562-5.074219-.136719-10.222657-.214844-15.449219-.214844-77.824219 0-139.007812 15.90625-170.15625 26.066406-13.507812 4.410156-22.625 17.046875-22.625 31.257812v32.140626h30.90625v-32.140626c0-14.210937 9.113281-26.847656 22.625-31.257812zm0 0" fill="#ca5b5e"/><g fill="#f3c44b"><path d="m303.832031 465.117188h-21.570312c-7.082031 0-12.824219 5.742187-12.824219 12.820312 0 7.082031 5.742188 12.824219 12.824219 12.824219h21.570312c7.082031 0 12.820313-5.742188 12.820313-12.824219 0-7.078125-5.738282-12.820312-12.820313-12.820312zm0 0"/><path d="m460.207031 146.398438-26.496093-40.28125s-60.570313-18.035157-192.777344-18.035157c-132.207032 0-192.777344 18.035157-192.777344 18.035157l-26.492188 40.28125c-10.675781 16.234374.96875 37.832031 20.398438 37.832031h397.742188c19.433593 0 31.078124-21.597657 20.402343-37.832031zm0 0"/></g></svg>