<svg height="512pt" viewBox="0 -24 512.0018 512" width="512pt" xmlns="http://www.w3.org/2000/svg"><path d="m354.304688 464.15625h-295.167969c-26.917969 0-48.742188-21.820312-48.742188-48.742188v-120.375c0-26.917968 21.824219-48.742187 48.742188-48.742187h295.167969c26.917968 0 48.742187 21.824219 48.742187 48.742187v120.375c0 26.921876-21.824219 48.742188-48.742187 48.742188zm0 0" fill="#00a65b"/><path d="m354.304688 425.257812h-295.167969c-26.917969 0-48.742188-21.820312-48.742188-48.742187v-120.375c0-26.917969 21.824219-48.738281 48.742188-48.738281h295.167969c26.917968 0 48.742187 21.820312 48.742187 48.738281v120.375c0 26.921875-21.824219 48.742187-48.742187 48.742187zm0 0" fill="#008c48"/><path d="m354.304688 386.359375h-295.167969c-26.917969 0-48.742188-21.820313-48.742188-48.742187v-120.375c0-26.917969 21.824219-48.738282 48.742188-48.738282h295.167969c26.917968 0 48.742187 21.820313 48.742187 48.738282v120.375c0 26.921874-21.824219 48.742187-48.742187 48.742187zm0 0" fill="#00a65b"/><path d="m354.304688 347.464844h-295.167969c-26.917969 0-48.742188-21.824219-48.742188-48.742188v-120.375c0-26.921875 21.824219-48.742187 48.742188-48.742187h295.167969c26.917968 0 48.742187 21.820312 48.742187 48.742187v120.375c0 26.917969-21.824219 48.742188-48.742187 48.742188zm0 0" fill="#008c48"/><path d="m114.660156 129.605469h-55.523437c-26.917969 0-48.742188 21.820312-48.742188 48.742187v55.523438zm0 0" fill="#00c172"/><path d="m114.660156 347.464844h-55.523437c-26.917969 0-48.742188-21.824219-48.742188-48.742188v-55.523437zm0 0" fill="#00c172"/><path d="m298.78125 129.605469h55.523438c26.917968 0 48.742187 21.820312 48.742187 48.742187v55.523438zm0 0" fill="#60daa8"/><path d="m298.78125 347.464844h55.523438c26.917968 0 48.742187-21.824219 48.742187-48.742188v-55.523437zm0 0" fill="#00c172"/><path d="m424.355469 277.429688h-295.167969c-26.917969 0-48.742188-21.820313-48.742188-48.742188v-120.371094c0-26.921875 21.824219-48.742187 48.742188-48.742187h295.167969c26.917969 0 48.742187 21.820312 48.742187 48.742187v120.371094c0 26.921875-21.824218 48.742188-48.742187 48.742188zm0 0" fill="#00ce8e"/><path d="m368.832031 168.503906c0-38.199218-41.214843-69.167968-92.058593-69.167968s-92.0625 30.96875-92.0625 69.167968c0 38.195313 41.21875 69.164063 92.0625 69.164063s92.058593-30.96875 92.058593-69.164063zm0 0" fill="#b1ecd0"/><g fill="#60daa8"><path d="m184.710938 59.574219h-55.523438c-26.917969 0-48.742188 21.820312-48.742188 48.742187v55.523438zm0 0"/><path d="m184.710938 277.429688h-55.523438c-26.917969 0-48.742188-21.820313-48.742188-48.742188v-55.523438zm0 0"/><path d="m368.832031 59.574219h55.523438c26.917969 0 48.742187 21.820312 48.742187 48.742187v55.523438zm0 0"/><path d="m368.832031 277.429688h55.523438c26.917969 0 48.742187-21.820313 48.742187-48.742188v-55.523438zm0 0"/></g><path d="m447.765625 207.414062 7.511719 13.734376c7.492187 13.695312 18.753906 24.960937 32.453125 32.449218l13.730469 7.511719c14.054687 7.6875 14.054687 27.871094 0 35.558594l-13.730469 7.507812c-13.699219 7.492188-24.960938 18.753907-32.453125 32.453125l-7.511719 13.730469c-7.683594 14.054687-27.871094 14.054687-35.554687 0l-7.511719-13.730469c-7.492188-13.699218-18.753907-24.960937-32.453125-32.453125l-13.730469-7.507812c-14.054687-7.6875-14.054687-27.871094 0-35.558594l13.730469-7.511719c13.699218-7.488281 24.960937-18.753906 32.453125-32.449218l7.511719-13.734376c7.683593-14.054687 27.871093-14.054687 35.554687 0zm0 0" fill="#f9ee80"/><path d="m52.714844 5.570312 3.96875 7.253907c3.957031 7.234375 9.90625 13.183593 17.144531 17.140625l7.253906 3.96875c7.425781 4.058594 7.425781 14.722656 0 18.785156l-7.253906 3.964844c-7.238281 3.957031-13.1875 9.90625-17.144531 17.144531l-3.96875 7.253906c-4.058594 7.425781-14.71875 7.425781-18.78125 0l-3.96875-7.253906c-3.957032-7.238281-9.90625-13.1875-17.140625-17.144531l-7.253907-3.964844c-7.425781-4.0625-7.425781-14.726562 0-18.785156l7.253907-3.96875c7.234375-3.957032 13.183593-9.90625 17.140625-17.140625l3.96875-7.253907c4.0625-7.425781 14.722656-7.425781 18.78125 0zm0 0" fill="#f9ee80"/><path d="m325.609375 181.214844c-4.265625 0-7.726563-3.460938-7.726563-7.726563v-12.828125c0-4.265625 3.460938-7.726562 7.726563-7.726562 4.269531 0 7.726563 3.460937 7.726563 7.726562v12.828125c0 4.265625-3.457032 7.726563-7.726563 7.726563zm0 0" fill="#454545"/><path d="m227.933594 181.214844c-4.269532 0-7.726563-3.460938-7.726563-7.726563v-12.828125c0-4.265625 3.457031-7.726562 7.726563-7.726562 4.269531 0 7.726562 3.460937 7.726562 7.726562v12.828125c0 4.265625-3.457031 7.726563-7.726562 7.726563zm0 0" fill="#454545"/><path d="m282.050781 165.769531c-1.734375 2.539063-4.253906 2.847657-5.277343 2.847657-1.027344 0-3.589844-.277344-5.277344-2.847657-2.34375-3.566406-7.136719-4.558593-10.703125-2.214843-3.566407 2.339843-4.558594 7.132812-2.214844 10.699218 4.039063 6.144532 10.839844 9.816406 18.195313 9.816406 7.351562 0 14.152343-3.671874 18.191406-9.816406 2.34375-3.566406 1.351562-8.359375-2.214844-10.699218-1.308594-.859376-7.089844-3.085938-10.699219 2.214843zm0 0" fill="#454545"/></svg>