<svg height="511pt" viewBox="1 -85 511.99998 511" width="511pt" xmlns="http://www.w3.org/2000/svg"><path d="m401.050781.5h-290.101562c-17.921875 0-32.449219 14.527344-32.449219 32.449219v287.050781h355v-287.050781c0-17.921875-14.527344-32.449219-32.449219-32.449219zm0 0" fill="#e9b9a5"/><g fill="#3a484a"><path d="m181.480469 82.136719c-4.269531 0-7.726563-3.460938-7.726563-7.726563v-13.488281c0-4.265625 3.457032-7.726563 7.726563-7.726563 4.265625 0 7.726562 3.460938 7.726562 7.726563v13.488281c0 4.265625-3.460937 7.726563-7.726562 7.726563zm0 0"/><path d="m330.519531 82.136719c-4.265625 0-7.726562-3.460938-7.726562-7.726563v-13.488281c0-4.265625 3.460937-7.726563 7.726562-7.726563 4.269531 0 7.726563 3.460938 7.726563 7.726563v13.488281c0 4.265625-3.457032 7.726563-7.726563 7.726563zm0 0"/><path d="m256 89.335938c-9.398438 0-18.222656-3.929688-24.210938-10.777344-2.808593-3.214844-2.480468-8.097656.730469-10.902344 3.214844-2.808594 8.097657-2.484375 10.902344.730469 3.054687 3.492187 7.640625 5.496093 12.578125 5.496093s9.523438-2.003906 12.574219-5.496093c2.808593-3.214844 7.691406-3.542969 10.902343-.734375 3.214844 2.808594 3.542969 7.6875.734376 10.902344-5.988282 6.851562-14.8125 10.78125-24.210938 10.78125zm0 0"/></g><path d="m183.753906 320c0-7.546875-1.796875-14.683594-4.988281-21 3.191406-6.316406 4.988281-13.457031 4.988281-21 0-7.546875-1.796875-14.683594-4.988281-21 3.191406-6.320312 4.988281-13.457031 4.988281-21 0-7.546875-1.796875-14.683594-4.988281-21 3.191406-6.320312 4.988281-13.457031 4.988281-21.003906 0-25.777344-20.972656-46.753906-46.753906-46.753906h-11.746094v-.746094c0-25.777344-20.972656-46.753906-46.753906-46.753906v220.253906h105.253906zm0 0" fill="#dc9f8c"/><path d="m433.5 99.746094c-25.78125 0-46.753906 20.972656-46.753906 46.753906v.746094h-11.746094c-25.78125 0-46.753906 20.972656-46.753906 46.753906 0 7.546875 1.796875 14.683594 4.988281 21-3.191406 6.316406-4.988281 13.457031-4.988281 21 0 7.546875 1.796875 14.683594 4.988281 21-3.191406 6.320312-4.988281 13.457031-4.988281 21 0 7.546875 1.796875 14.683594 4.988281 21.003906-3.191406 6.316406-4.988281 13.453125-4.988281 21h105.253906zm0 0" fill="#dc9f8c"/><path d="m297.820312 187.5-37.957031-48.632812c-1.960937-2.515626-5.765625-2.515626-7.726562 0l-37.957031 48.632812c-2.511719 3.214844-.21875 7.917969 3.863281 7.917969h11.667969c2.710937 0 4.902343 2.191406 4.902343 4.898437v78.449219c0 2.707031 2.195313 4.898437 4.902344 4.898437h32.96875c2.707031 0 4.898437-2.191406 4.898437-4.898437v-78.449219c0-2.707031 2.195313-4.898437 4.902344-4.898437h11.667969c4.085937 0 6.378906-4.703125 3.867187-7.917969zm0 0" fill="#dc9f8c"/><path d="m57.5 146.5c0-11.597656 9.402344-21 21-21s21 9.402344 21 21v26.5l-21 17.5-21-17.5zm0 0" fill="#fecfc3"/><path d="m454.5 146.5c0-11.597656-9.402344-21-21-21s-21 9.402344-21 21v26.5l21 17.5 21-17.5zm0 0" fill="#fecfc3"/><path d="m119 257h18c11.597656 0 21-9.402344 21-21s-9.402344-21-21-21h-18 18c11.597656 0 21-9.402344 21-21s-9.402344-21-21-21h-137v168h137c11.597656 0 21-9.402344 21-21s-9.402344-21-21-21h-18 18c11.597656 0 21-9.40625 21-21.003906s-9.402344-21-21-21h-18zm0 0" fill="#fee2da"/><path d="m393 257h-18c-11.597656 0-21-9.402344-21-21s9.402344-21 21-21h18-18c-11.597656 0-21-9.402344-21-21s9.402344-21 21-21h137v168h-137c-11.597656 0-21-9.402344-21-21s9.402344-21 21-21h18-18c-11.597656 0-21-9.40625-21-21.003906s9.402344-21 21-21h18zm0 0" fill="#fee2da"/></svg>