<?xml version="1.0" encoding="iso-8859-1"?>
<!-- Generator: Adobe Illustrator 19.0.0, SVG Export Plug-In . SVG Version: 6.00 Build 0)  -->
<svg version="1.1" id="Capa_1" xmlns="http://www.w3.org/2000/svg" xmlns:xlink="http://www.w3.org/1999/xlink" x="0px" y="0px"
	 viewBox="0 0 512 512" style="enable-background:new 0 0 512 512;" xml:space="preserve">
<circle style="fill:#535E8A;" cx="256" cy="256" r="256"/>
<path style="fill:#FF4F6F;" d="M360.392,22.192C328.516,7.923,293.184,0,256,0C114.606,0,0,114.606,0,256
	c0,91.833,48.344,172.376,120.989,217.548C160.18,497.926,206.452,512,256,512c141.381,0,256-114.607,256-256
	C512,151.79,449.738,62.133,360.392,22.192z"/>
<path style="fill:#EDEDED;" d="M470.473,256c0,116.832-93.392,211.833-209.578,214.432c-1.623,0.04-3.258,0.052-4.894,0.052
	c-27.213,0-53.252-5.066-77.206-14.326c-12.215-4.722-23.902-10.513-34.916-17.293C82.46,401.154,41.49,333.379,41.49,256
	c0-118.455,96.043-214.485,214.511-214.485c29.337,0,57.289,5.883,82.747,16.554c14.035,5.87,27.305,13.191,39.639,21.779
	c9.194,6.398,17.848,13.494,25.907,21.224C445.067,140.092,470.473,195.085,470.473,256z"/>
<path style="fill:#C2C2C2;" d="M404.293,101.073c-8.059-7.73-16.713-14.827-25.907-21.224
	c-12.334-8.587-25.604-15.909-39.639-21.778C313.289,47.399,285.338,41.515,256,41.515c-13.661,0-27.019,1.293-39.97,3.733
	c14.856,2.8,29.176,7.12,42.778,12.822c14.035,5.87,27.305,13.191,39.639,21.778c9.194,6.398,17.847,13.495,25.907,21.224
	c40.773,39.019,66.18,94.012,66.18,154.928c0,104.816-75.174,192.045-174.533,210.76c12.961,2.445,26.332,3.725,40.002,3.725
	c1.636,0,3.272-0.014,4.894-0.053C377.081,467.834,470.473,372.833,470.473,256C470.473,195.085,445.067,140.092,404.293,101.073z"
	/>
<path style="fill:#E33958;" d="M256.001,480.934c-60.089,0-116.58-23.395-159.069-65.877C54.441,372.574,31.041,316.087,31.041,256
	c0-124.029,100.917-224.934,224.96-224.934c124.022,0,224.921,100.905,224.921,224.934c0,60.085-23.397,116.573-65.881,159.056
	C372.559,457.539,316.077,480.934,256.001,480.934z M256.001,51.965C143.48,51.965,51.939,143.495,51.939,256
	c0,112.506,91.541,204.036,204.062,204.036c112.499,0,204.023-91.53,204.023-204.036C460.024,143.495,368.499,51.965,256.001,51.965
	z"/>
<g>
	<path style="fill:#323B5B;" d="M255.99,123.379c-5.771,0-10.449-4.678-10.449-10.449V77.416c0-5.771,4.678-10.449,10.449-10.449
		c5.771,0,10.449,4.678,10.449,10.449v35.514C266.439,118.701,261.759,123.379,255.99,123.379z"/>
	<path style="fill:#323B5B;" d="M255.99,445.039c-5.771,0-10.449-4.678-10.449-10.449v-35.514c0-5.771,4.678-10.449,10.449-10.449
		c5.771,0,10.449,4.678,10.449,10.449v35.514C266.439,440.361,261.759,445.039,255.99,445.039z"/>
	<path style="fill:#323B5B;" d="M434.576,266.452h-35.514c-5.771,0-10.449-4.678-10.449-10.449c0-5.771,4.678-10.449,10.449-10.449
		h35.514c5.771,0,10.449,4.678,10.449,10.449C445.025,261.774,440.347,266.452,434.576,266.452z"/>
	<path style="fill:#323B5B;" d="M112.916,266.452H77.402c-5.771,0-10.449-4.678-10.449-10.449c0-5.771,4.678-10.449,10.449-10.449
		h35.514c5.771,0,10.449,4.678,10.449,10.449C123.365,261.774,118.687,266.452,112.916,266.452z"/>
</g>
<g>
	<path style="fill:#474F70;" d="M379.897,194.914c-4.356,0-8.376-2.823-9.838-6.93c-1.463-4.109-0.176-8.828,3.209-11.594
		c3.436-2.807,8.371-3.116,12.142-0.792c3.726,2.295,5.645,6.882,4.68,11.148C389.024,191.455,384.736,194.914,379.897,194.914z"/>
	<path style="fill:#474F70;" d="M132.089,337.992c-4.189,0-8.051-2.594-9.655-6.457c-1.693-4.078-0.568-8.941,2.762-11.845
		c3.3-2.878,8.123-3.398,11.958-1.281c3.787,2.091,5.942,6.49,5.25,10.765C141.592,334.175,137.176,337.992,132.089,337.992z"/>
	<path style="fill:#474F70;" d="M327.526,142.544c-4.379,0-8.345-2.817-9.828-6.928c-1.459-4.04-0.209-8.711,3.07-11.486
		c3.43-2.903,8.454-3.262,12.273-0.903c3.655,2.258,5.572,6.705,4.726,10.915C336.797,138.969,332.45,142.544,327.526,142.544z"/>
	<path style="fill:#474F70;" d="M184.449,390.352c-4.31,0-8.248-2.736-9.77-6.764c-1.597-4.226-0.211-9.178,3.37-11.942
		c3.315-2.559,7.934-2.885,11.573-0.815c3.862,2.196,5.951,6.755,5.077,11.119C193.732,386.779,189.371,390.352,184.449,390.352z"/>
	<path style="fill:#474F70;" d="M184.449,142.544c-4.304,0-8.254-2.741-9.77-6.767c-1.545-4.105-0.3-8.917,3.094-11.716
		c3.234-2.668,7.902-3.15,11.599-1.172c3.907,2.089,6.108,6.539,5.389,10.914C193.941,138.785,189.49,142.544,184.449,142.544z"/>
	<path style="fill:#474F70;" d="M327.526,390.352c-4.248,0-8.144-2.657-9.708-6.601c-1.642-4.139-0.408-9.044,3.033-11.884
		c3.236-2.672,7.895-3.145,11.598-1.172c3.976,2.118,6.194,6.742,5.337,11.171C336.845,386.732,332.49,390.352,327.526,390.352z"/>
	<path style="fill:#474F70;" d="M132.089,194.914c-4.361,0-8.355-2.81-9.828-6.912c-1.477-4.113-0.185-8.84,3.197-11.612
		c3.296-2.7,8-3.093,11.717-1.038c3.802,2.102,5.939,6.532,5.216,10.819C141.553,191.146,137.143,194.914,132.089,194.914z"/>
	<path style="fill:#474F70;" d="M379.897,337.992c-4.246,0-8.155-2.675-9.718-6.615c-1.634-4.122-0.413-8.932,2.958-11.798
		c3.42-2.907,8.458-3.283,12.272-0.912c3.758,2.336,5.659,6.942,4.653,11.248C388.973,334.584,384.695,337.992,379.897,337.992z"/>
	<path style="fill:#474F70;" d="M302.528,266.452h-46.54c-5.771,0-10.449-4.678-10.449-10.449v-74.602
		c0-5.771,4.678-10.449,10.449-10.449c5.771,0,10.449,4.678,10.449,10.449v64.153h36.091c5.771,0,10.449,4.678,10.449,10.449
		S308.299,266.452,302.528,266.452z"/>
</g>
<path style="fill:#FF4F6F;" d="M279.25,256c0,12.675-10.131,22.981-22.736,23.263c-0.176,0.004-0.353,0.005-0.531,0.005
	c-2.952,0-5.777-0.55-8.376-1.554c-1.325-0.512-2.593-1.141-3.788-1.876c-6.663-4.092-11.107-11.444-11.107-19.838
	c0-12.851,10.42-23.269,23.272-23.269c3.183,0,6.215,0.638,8.977,1.796c1.522,0.636,2.962,1.432,4.3,2.363
	c0.998,0.694,1.936,1.464,2.811,2.303C276.495,243.426,279.25,249.392,279.25,256z"/>
<g>
</g>
<g>
</g>
<g>
</g>
<g>
</g>
<g>
</g>
<g>
</g>
<g>
</g>
<g>
</g>
<g>
</g>
<g>
</g>
<g>
</g>
<g>
</g>
<g>
</g>
<g>
</g>
<g>
</g>
</svg>
