<?xml version="1.0" encoding="iso-8859-1"?>
<!-- Generator: Adobe Illustrator 19.0.0, SVG Export Plug-In . SVG Version: 6.00 Build 0)  -->
<svg version="1.1" id="Capa_1" xmlns="http://www.w3.org/2000/svg" xmlns:xlink="http://www.w3.org/1999/xlink" x="0px" y="0px"
	 viewBox="0 0 512 512" style="enable-background:new 0 0 512 512;" xml:space="preserve">
<path style="fill:#78B9EB;" d="M369.152,182.945l-7.494,22.316c-8.508,25.338-36.196,39.115-61.544,30.607l-18.176-6.107
	l-127.011-42.623c-25.348-8.508-39.115-36.206-30.617-61.544l7.494-22.316c5.155-15.36,17.358-26.466,31.807-30.938
	c9.398-2.919,19.749-3.033,29.737,0.321l145.197,48.741C363.884,129.909,377.66,157.597,369.152,182.945z"/>
<path style="fill:#5AAAE7;" d="M291.896,221.18l-9.957,8.581l-127.011-42.623c-25.348-8.508-39.115-36.206-30.617-61.544
	l7.494-22.316c5.155-15.36,17.358-26.466,31.807-30.938L291.896,221.18z"/>
<polygon style="fill:#C70024;" points="265.616,233.032 180.897,306.055 168.103,317.078 11.976,135.954 24.78,124.92 
	109.499,51.897 "/>
<polygon style="fill:#FF0C38;" points="265.616,233.032 180.897,306.055 24.78,124.92 109.499,51.897 "/>
<path style="fill:#A5001E;" d="M118.421,62.972l-96.808,83.436c-4.896,4.213-12.359,3.664-16.582-1.232l-2.194-2.546
	c-4.223-4.896-3.664-12.359,1.232-16.582l7.659-6.604l89.139-76.832c4.854-4.182,12.203-3.685,16.447,1.076
	c0.052,0.052,0.104,0.104,0.145,0.155l2.184,2.546C123.865,51.287,123.317,58.749,118.421,62.972z"/>
<path style="fill:#C70024;" d="M117.313,43.689l-89.149,76.832c-4.844,4.182-12.193,3.674-16.437-1.076l89.139-76.832
	C105.721,38.431,113.07,38.928,117.313,43.689z"/>
<circle style="fill:#A5001E;" cx="129.029" cy="173.516" r="45.563"/>
<path style="fill:#FFCD00;" d="M161.17,171.02l-7.807-6.142l2.577-10.589c1.014-4.165-1.541-8.365-5.706-9.379
	c-4.167-1.015-8.364,1.541-9.379,5.706l-1.738,7.14c-2.939-0.709-6.418-1.252-10.212-1.252c-9.98,0-23.814,3.744-33.043,21.582
	c-1.754,3.391-0.783,7.556,2.293,9.82c0.977,0.719,9.883,7.026,21.503,7.026c7.855,0,18.384-2.902,27.177-15.434l4.735,3.725
	c1.423,1.12,3.114,1.662,4.794,1.662c2.299,0,4.575-1.016,6.106-2.963C165.122,178.551,164.54,173.67,161.17,171.02z
	 M119.658,179.404c-1.958,0-3.832-0.349-5.501-0.841c3.971-4.384,8.846-6.534,14.748-6.534c1.359,0,2.67,0.115,3.898,0.299
	C128.972,177.03,124.572,179.404,119.658,179.404z"/>
<path style="fill:#FF728B;" d="M473.853,68.748L367.18,23.831c-9.128-3.843-19.643,0.442-23.486,9.57l-14.83,35.227
	c-0.109,0.053-0.113,0.055-0.004,0.002l-43.622,34.848c-1.488,1.188-2.888,2.485-4.17,3.867c-3.153,3.37-5.699,7.284-7.501,11.565
	l-35.641,84.658c-5.676,13.483,0.65,29.009,14.133,34.686l25.131,10.58l-0.001,0.002l123.506,51.995
	c13.484,5.676,29.017-0.652,34.693-14.136l35.669-84.724c2.522-5.993,3.517-12.518,2.893-18.99l-5.354-55.523l14.828-35.222
	C487.266,83.105,482.981,72.59,473.853,68.748z"/>
<path style="fill:#FF3F62;" d="M400.694,300.831l-123.506-51.995l45.917-109.068c2.542-6.037,6.555-11.343,11.673-15.432
	l43.627-34.851l90.187,37.969l5.354,55.526c0.624,6.472-0.37,12.998-2.893,18.99l-35.669,84.724
	C429.711,300.178,414.178,306.508,400.694,300.831z"/>
<path style="fill:#FF728B;" d="M468.593,127.456l-42.838,35.439c-1.394,1.156-2.697,2.395-3.901,3.72
	c-3.042,3.301-5.494,7.119-7.248,11.285l-46.055,109.396L252.06,238.253c-13.483-5.676-19.809-21.203-14.133-34.686l35.641-84.658
	c1.802-4.281,4.348-8.195,7.501-11.565c1.282-1.383,2.682-2.68,4.17-3.867l43.622-34.848L468.593,127.456z"/>
<path style="fill:#FFA5B5;" d="M421.853,166.615c-3.042,3.301-5.494,7.119-7.248,11.285l-21.856,51.916l-140.901-59.319
	l21.719-51.588c1.802-4.281,4.348-8.195,7.501-11.565L421.853,166.615z"/>
<path style="fill:#FF0C38;" d="M473.951,182.976l-5.362-55.52l-42.83,35.44c-1.397,1.159-2.701,2.391-3.902,3.716
	c-3.043,3.302-5.496,7.121-7.256,11.292l-46.049,109.395l32.138,13.528c13.487,5.682,29.023-0.652,34.695-14.128l35.668-84.729
	C473.578,195.977,474.572,189.456,473.951,182.976z"/>
<g>
	<path style="fill:#FF3F62;" d="M344.639,172.997c0.358,8.991-8.499,15.723-16.942,12.609c-0.193-0.071-0.385-0.147-0.577-0.228
		c-0.191-0.081-0.38-0.165-0.565-0.254c-8.128-3.862-9.504-14.902-2.822-20.93l14.836-13.384c1.988-1.794,5.166-0.455,5.273,2.22
		L344.639,172.997z"/>
	<path style="fill:#FF3F62;" d="M357.238,80.568l-0.455,1.108l-43.627,34.85c-1.49,1.19-2.888,2.484-4.171,3.871
		c-3.147,3.364-5.693,7.287-7.494,11.562L256.393,240.07l-4.337-1.822c-13.476-5.672-19.811-21.198-14.128-34.685l35.637-84.657
		c1.801-4.275,4.347-8.187,7.504-11.562c1.283-1.387,2.681-2.681,4.171-3.871l43.617-34.84c0-0.01,0.01-0.01,0.01-0.01
		L357.238,80.568z"/>
</g>
<path style="fill:#FF728B;" d="M309.875,119.476c-0.311,0.3-0.6,0.611-0.89,0.921c-3.147,3.364-5.693,7.287-7.494,11.562
	l-21.084,50.552l-28.557-12.017l21.715-51.587c1.801-4.275,4.347-8.187,7.504-11.562L309.875,119.476z"/>
<path style="fill:#FF3F62;" d="M468.593,127.461L328.864,68.627l14.83-35.227c3.843-9.128,14.358-13.413,23.486-9.57l106.672,44.917
	c9.128,3.843,13.413,14.358,9.57,23.486L468.593,127.461z"/>
<path style="fill:#FF0C38;" d="M378.53,28.609l-21.291,51.96l-28.371-11.945l14.822-35.223c3.85-9.129,14.367-13.414,23.496-9.574
	L378.53,28.609z"/>
<path style="fill:#7ED63E;" d="M484.312,238.124l-73.975,227.422c-3.157,9.698-12.193,16.271-22.398,16.271H125.273
	c-10.164,0-19.18-6.521-22.367-16.168L27.688,238.124H484.312z"/>
<path style="fill:#A4E276;" d="M484.312,238.124l-73.975,227.422c-3.157,9.698-12.193,16.271-22.398,16.271H169.584
	c-10.164,0-19.18-6.521-22.367-16.168L72.009,238.124H484.312z"/>
<path style="fill:#5EAC24;" d="M490.588,233.561c-1.46-2.01-3.796-3.2-6.281-3.2H72.424c-4.287,0-7.763,3.476-7.763,7.763
	s3.476,7.763,7.763,7.763h401.195l-27.982,86.029h-45.888l12.546-58.945c0.892-4.194-1.783-8.317-5.976-9.209
	c-4.192-0.894-8.317,1.782-9.209,5.976l-13.234,62.178h-52.298l5.301-59.878c0.378-4.271-2.777-8.039-7.049-8.417
	c-4.26-0.38-8.039,2.777-8.417,7.049l-5.422,61.246h-52.229v-60.562c0-4.287-3.476-7.763-7.763-7.763
	c-4.287,0-7.763,3.476-7.763,7.763v60.562h-50.5l-5.422-61.246c-0.378-4.271-4.156-7.421-8.417-7.049
	c-4.271,0.378-7.426,4.146-7.049,8.417l5.301,59.878h-9.497c-4.287,0-7.763,3.476-7.763,7.763c0,4.287,3.476,7.763,7.763,7.763
	h10.871l4.889,55.227H144.91l-11.755-55.227h8.446c4.287,0,7.763-3.476,7.763-7.763c0-4.287-3.476-7.763-7.763-7.763h-11.75
	l-13.234-62.178c-0.893-4.193-5.012-6.874-9.209-5.976c-4.193,0.892-6.869,5.015-5.976,9.209l12.546,58.945H66.872l-28.438-86.029
	h2.939c4.287,0,7.763-3.476,7.763-7.763s-3.476-7.763-7.763-7.763h-13.68c-2.492,0-4.832,1.197-6.292,3.216
	c-1.459,2.02-1.861,4.617-1.079,6.983L95.533,468.09c4.249,12.853,16.199,21.49,29.736,21.49h28.526
	c0.006,0,0.011,0.001,0.018,0.001c0.009,0,0.02-0.001,0.029-0.001h49.351c0.003,0,0.007,0,0.01,0c0.004,0,0.007,0,0.011,0h107.298
	c0.004,0,0.007,0,0.011,0c0.003,0,0.007,0,0.01,0h49.351c0.009,0,0.02,0.001,0.029,0.001c0.006,0,0.011-0.001,0.018-0.001h28.004
	c13.606,0,25.575-8.693,29.784-21.632l23.045-70.854c1.326-4.077-0.905-8.457-4.982-9.783c-4.078-1.325-8.456,0.905-9.783,4.982
	l-3.375,10.378H384.69l11.755-55.227h44.143l-4.983,15.32c-1.326,4.077,0.905,8.457,4.982,9.783
	c0.798,0.259,1.606,0.383,2.402,0.383c3.272,0,6.314-2.085,7.381-5.364l41.319-127.039
	C492.458,238.161,492.049,235.573,490.588,233.561z M314.617,347.442l-4.889,55.227h-45.966v-55.227H314.617z M318.995,474.053
	l4.944-55.858h41.572l-11.89,55.858H318.995z M303.409,474.053h-39.647v-55.858h44.591L303.409,474.053z M210.318,474.053
	l-4.944-55.858h42.864v55.858H210.318z M199.11,347.442h49.127v55.227H204L199.11,347.442z M189.788,418.195l4.944,55.858h-34.628
	l-11.889-55.858H189.788z M117.282,347.442l11.755,55.227H90.26l-18.255-55.227H117.282z M110.274,463.216l-14.882-45.022h36.95
	l11.89,55.858H125.27C118.443,474.053,112.417,469.698,110.274,463.216z M417.575,418.195l-14.619,44.949
	c-2.122,6.525-8.157,10.908-15.019,10.908h-18.439l11.89-55.858H417.575z M368.817,402.669h-43.502l4.889-55.227h50.369
	L368.817,402.669z"/>
<path style="fill:#4E901E;" d="M512,238.124c0,9.14-3.737,17.451-9.761,23.465c-6.024,6.024-14.335,9.761-23.475,9.761H33.236
	c-18.279,0-33.236-14.946-33.236-33.225c0-9.14,3.737-17.451,9.761-23.475c6.024-6.024,14.335-9.761,23.475-9.761h445.528
	c17.658,0,32.221,13.963,33.184,31.383C511.979,236.882,512,237.503,512,238.124z"/>
<path style="fill:#5EAC24;" d="M511.948,236.271H66.42c-17.658,0-32.211-13.963-33.173-31.383h445.518
	C496.422,204.888,510.985,218.851,511.948,236.271z"/>
<path style="fill:#47821C;" d="M278.543,68.251v157.794c0,5.848-2.256,11.189-5.941,15.205c-4.13,4.502-10.05,7.339-16.602,7.339
	c-12.4,0-22.543-10.144-22.543-22.543V68.251c0-12.39,10.144-22.533,22.543-22.533c6.2,0,11.841,2.536,15.919,6.624
	c0.228,0.228,0.455,0.466,0.683,0.714C276.287,57.062,278.543,62.414,278.543,68.251z"/>
<path style="fill:#4E901E;" d="M278.543,68.251v157.794c0,5.848-2.256,11.189-5.941,15.205c-3.695-4.016-5.952-9.357-5.952-15.205
	V68.251c0-5.838,2.256-11.189,5.952-15.195C276.287,57.062,278.543,62.414,278.543,68.251z"/>
<circle style="fill:#A4E276;" cx="255.999" cy="226.666" r="6.693"/>
<g>
</g>
<g>
</g>
<g>
</g>
<g>
</g>
<g>
</g>
<g>
</g>
<g>
</g>
<g>
</g>
<g>
</g>
<g>
</g>
<g>
</g>
<g>
</g>
<g>
</g>
<g>
</g>
<g>
</g>
</svg>
