<?xml version="1.0" encoding="iso-8859-1"?>
<!-- Generator: Adobe Illustrator 19.0.0, SVG Export Plug-In . SVG Version: 6.00 Build 0)  -->
<svg version="1.1" id="Capa_1" xmlns="http://www.w3.org/2000/svg" xmlns:xlink="http://www.w3.org/1999/xlink" x="0px" y="0px"
	 viewBox="0 0 512 512" style="enable-background:new 0 0 512 512;" xml:space="preserve">
<g>
	<g>
		<path d="M431.18,487.546l-14.775-376.758c-0.496-12.679-10.825-22.61-23.514-22.61h-57.245v-8.533C335.646,35.729,299.917,0,256,0
			s-79.645,35.729-79.645,79.645v41.83c-9.308,3.139-16.032,11.946-16.032,22.3c0,12.976,10.557,23.532,23.532,23.532
			c12.975,0,23.532-10.557,23.532-23.532c0-10.354-6.724-19.161-16.032-22.3v-18.297h104.721c4.143,0,7.5-3.358,7.5-7.5
			c0-4.143-3.357-7.5-7.5-7.5H191.355v-8.533C191.355,44,220.354,15,256,15s64.646,29,64.646,64.645v41.83
			c-9.308,3.139-16.032,11.946-16.032,22.3c0,12.976,10.557,23.532,23.532,23.532c12.975,0,23.532-10.557,23.532-23.532
			c0-10.354-6.724-19.161-16.032-22.3v-18.297h57.245c4.601,0,8.346,3.601,8.525,8.198l14.775,376.758
			c0.092,2.341-0.752,4.56-2.376,6.249c-1.623,1.688-3.808,2.618-6.15,2.618H104.334c-2.342,0-4.526-0.93-6.15-2.618
			c-1.624-1.688-2.467-3.908-2.375-6.248l14.775-376.758c0.18-4.597,3.925-8.198,8.526-8.198h32.679c4.142,0,7.5-3.358,7.5-7.5
			c0-4.143-3.358-7.5-7.5-7.5H119.11c-12.688,0-23.017,9.932-23.514,22.61L80.82,487.546c-0.253,6.456,2.074,12.575,6.552,17.232
			S97.874,512,104.334,512h303.331c6.461,0,12.485-2.564,16.963-7.222C429.106,500.122,431.433,494.001,431.18,487.546z
			 M192.387,143.775c0,4.704-3.827,8.532-8.532,8.532c-4.705,0-8.532-3.828-8.532-8.532c0-4.705,3.828-8.532,8.532-8.532
			C188.559,135.243,192.387,139.07,192.387,143.775z M336.678,143.775c0,4.704-3.827,8.532-8.532,8.532
			c-4.705,0-8.532-3.828-8.532-8.532c0-4.705,3.827-8.532,8.532-8.532S336.678,139.07,336.678,143.775z"/>
	</g>
</g>
<g>
	<g>
		<path d="M350.714,285.249c-2.45-7.542-9.146-12.761-17.057-13.298l-43.494-2.949l-16.244-40.453
			c-2.955-7.359-9.989-12.114-17.919-12.114s-14.964,4.755-17.919,12.114l-16.245,40.453l-43.493,2.949
			c-7.912,0.537-14.607,5.756-17.058,13.298c-2.451,7.542-0.102,15.701,5.984,20.786l33.453,27.95l-10.635,42.275
			c-1.935,7.69,0.96,15.672,7.376,20.333s14.901,4.949,21.617,0.732L256,374.147l36.92,23.179c3.166,1.988,6.725,2.974,10.273,2.974
			c3.981,0,7.952-1.242,11.344-3.706c6.416-4.661,9.311-12.643,7.376-20.333l-10.636-42.275l33.453-27.95
			C350.816,300.95,353.165,292.792,350.714,285.249z M335.113,294.524l-37.066,30.969c-2.209,1.846-3.167,4.793-2.465,7.585
			l11.784,46.842c0.642,2.55-0.938,4.022-1.646,4.538c-0.71,0.515-2.602,1.561-4.824,0.164l-40.909-25.683
			c-1.219-0.766-2.603-1.148-3.987-1.148c-1.384,0-2.769,0.383-3.988,1.148l-40.908,25.683c-2.228,1.398-4.115,0.352-4.825-0.164
			c-0.708-0.515-2.288-1.988-1.646-4.538l11.784-46.842c0.702-2.792-0.255-5.74-2.465-7.585l-37.066-30.969
			c-2.018-1.687-1.606-3.807-1.336-4.64c0.271-0.833,1.184-2.79,3.807-2.968l48.191-3.268c2.873-0.194,5.38-2.017,6.453-4.688
			l18-44.823c0.979-2.44,3.123-2.704,3.999-2.704s3.02,0.264,3.999,2.704l17.999,44.823c1.073,2.671,3.58,4.493,6.452,4.688
			l48.192,3.268c2.622,0.178,3.535,2.135,3.806,2.968C336.72,290.718,337.131,292.838,335.113,294.524z"/>
	</g>
</g>
<g>
</g>
<g>
</g>
<g>
</g>
<g>
</g>
<g>
</g>
<g>
</g>
<g>
</g>
<g>
</g>
<g>
</g>
<g>
</g>
<g>
</g>
<g>
</g>
<g>
</g>
<g>
</g>
<g>
</g>
</svg>
