<?xml version="1.0" encoding="iso-8859-1"?>
<!-- Generator: Adobe Illustrator 19.0.0, SVG Export Plug-In . SVG Version: 6.00 Build 0)  -->
<svg version="1.1" id="Capa_1" xmlns="http://www.w3.org/2000/svg" xmlns:xlink="http://www.w3.org/1999/xlink" x="0px" y="0px"
	 viewBox="0 0 512 512" style="enable-background:new 0 0 512 512;" xml:space="preserve">
<g>
	<g>
		<path d="M368.232,36.084H31.55C14.152,36.084,0,50.238,0,67.634v272.553c0,17.396,14.152,31.55,31.55,31.55h211.763
			c4.143,0,7.5-3.357,7.5-7.5s-3.358-7.5-7.5-7.5H31.55c-9.125,0-16.549-7.424-16.549-16.549V115.215h313.15
			c4.143,0,7.5-3.357,7.5-7.5c0-4.143-3.357-7.5-7.5-7.5H15V67.634c0-9.125,7.424-16.549,16.549-16.549h336.683
			c9.125,0,16.549,7.424,16.549,16.549v32.581h-24.562c-4.143,0-7.5,3.357-7.5,7.5c0,4.143,3.357,7.5,7.5,7.5h24.562v91.952
			c0,4.143,3.357,7.5,7.5,7.5c4.143,0,7.5-3.357,7.5-7.5V67.634C399.782,50.238,385.63,36.084,368.232,36.084z"/>
	</g>
</g>
<g>
	<g>
		<path d="M39.645,68.15h-0.08c-4.143,0-7.46,3.357-7.46,7.5s3.397,7.5,7.54,7.5s7.5-3.357,7.5-7.5S43.788,68.15,39.645,68.15z"/>
	</g>
</g>
<g>
	<g>
		<path d="M87.743,68.15h-0.08c-4.143,0-7.46,3.357-7.46,7.5s3.397,7.5,7.54,7.5s7.5-3.357,7.5-7.5S91.886,68.15,87.743,68.15z"/>
	</g>
</g>
<g>
	<g>
		<path d="M63.614,68.15h-0.08c-4.143,0-7.46,3.357-7.46,7.5s3.397,7.5,7.54,7.5s7.5-3.357,7.5-7.5S67.757,68.15,63.614,68.15z"/>
	</g>
</g>
<g>
	<g>
		<path d="M272.038,68.15h-152.31c-4.143,0-7.5,3.357-7.5,7.5s3.357,7.5,7.5,7.5h152.31c4.143,0,7.5-3.357,7.5-7.5
			S276.181,68.15,272.038,68.15z"/>
	</g>
</g>
<g>
	<g>
		<path d="M360.216,68.15h-56.114c-4.143,0-7.5,3.357-7.5,7.5s3.357,7.5,7.5,7.5h56.114c4.143,0,7.5-3.357,7.5-7.5
			S364.359,68.15,360.216,68.15z"/>
	</g>
</g>
<g>
	<g>
		<path d="M510.834,323.24c-2.987-9.191-11.147-15.553-20.789-16.206l-60.726-4.118l-22.681-56.48
			c-3.601-8.968-12.172-14.763-21.836-14.764c-0.001,0,0,0-0.001,0c-9.664,0-18.236,5.796-21.838,14.764l-22.68,56.48l-60.726,4.118
			c-9.642,0.653-17.802,7.015-20.789,16.206c-2.986,9.19-0.123,19.134,7.293,25.33l46.708,39.024l-14.85,59.025
			c-2.357,9.373,1.171,19.1,8.99,24.78c4.134,3.003,8.972,4.516,13.823,4.516c4.325,0,8.663-1.203,12.521-3.625l51.548-32.362
			l51.548,32.362c8.186,5.14,18.526,4.788,26.344-0.891c7.819-5.681,11.348-15.407,8.99-24.78l-14.85-59.025l46.708-39.024
			C510.957,342.375,513.821,332.431,510.834,323.24z M493.924,337.059l-50.321,42.044c-2.209,1.847-3.167,4.794-2.465,7.586
			l15.998,63.592c1.306,5.19-2.165,8.189-3.26,8.984c-1.096,0.796-5.021,3.167-9.551,0.323l-55.536-34.866
			c-2.439-1.531-5.537-1.531-7.977,0l-55.536,34.866c-4.529,2.846-8.456,0.474-9.551-0.323c-1.095-0.795-4.565-3.794-3.26-8.984
			l15.998-63.592c0.702-2.792-0.256-5.739-2.465-7.586l-50.321-42.044c-4.107-3.432-3.062-7.896-2.644-9.184
			c0.418-1.286,2.197-5.514,7.538-5.876l65.423-4.437c2.872-0.194,5.379-2.016,6.452-4.688l24.435-60.85
			c1.994-4.967,6.564-5.354,7.918-5.354c1.354,0,5.923,0.387,7.917,5.354l24.436,60.85c1.073,2.672,3.58,4.493,6.452,4.688
			l65.423,4.437c5.341,0.362,7.12,4.59,7.538,5.876C496.986,329.162,498.031,333.628,493.924,337.059z"/>
	</g>
</g>
<g>
	<g>
		<path d="M159.81,140.296H79.647c-12.976,0-23.532,10.557-23.532,23.532v144.293c0,12.976,10.557,23.532,23.532,23.532h80.162
			c12.976,0,23.532-10.557,23.532-23.532V163.829C183.342,150.852,172.785,140.296,159.81,140.296z M168.342,308.122
			c0,4.705-3.827,8.532-8.532,8.532H79.647c-4.705,0-8.532-3.827-8.532-8.532V163.83c0-4.705,3.827-8.532,8.532-8.532h80.162
			c4.705-0.001,8.532,3.827,8.532,8.532V308.122z"/>
	</g>
</g>
<g>
	<g>
		<path d="M127.744,292.606h-16.032c-4.143,0-7.5,3.357-7.5,7.5s3.357,7.5,7.5,7.5h16.032c4.143,0,7.5-3.357,7.5-7.5
			S131.887,292.606,127.744,292.606z"/>
	</g>
</g>
<g>
	<g>
		<path d="M336.167,140.296H231.955c-8.556,0-15.516,6.961-15.516,15.517v16.032c0,8.556,6.96,15.516,15.516,15.516h104.212
			c8.556,0,15.517-6.96,15.517-15.516v-16.032C351.684,147.257,344.723,140.296,336.167,140.296z M336.685,171.846
			c0,0.284-0.231,0.516-0.517,0.516H231.956c-0.285,0-0.516-0.232-0.516-0.516v-16.032c0-0.285,0.231-0.517,0.516-0.517h104.212
			c0.285,0,0.517,0.231,0.517,0.517V171.846z"/>
	</g>
</g>
<g>
	<g>
		<path d="M320.135,204.426h-88.18c-4.143,0-7.5,3.357-7.5,7.5s3.357,7.5,7.5,7.5h88.18c4.142,0,7.5-3.357,7.5-7.5
			S324.278,204.426,320.135,204.426z"/>
	</g>
</g>
<g>
	<g>
		<path d="M296.086,236.492h-64.131c-4.143,0-7.5,3.357-7.5,7.5c0,4.143,3.357,7.5,7.5,7.5h64.131c4.143,0,7.5-3.357,7.5-7.5
			C303.586,239.849,300.229,236.492,296.086,236.492z"/>
	</g>
</g>
<g>
</g>
<g>
</g>
<g>
</g>
<g>
</g>
<g>
</g>
<g>
</g>
<g>
</g>
<g>
</g>
<g>
</g>
<g>
</g>
<g>
</g>
<g>
</g>
<g>
</g>
<g>
</g>
<g>
</g>
</svg>
