<?xml version="1.0" encoding="iso-8859-1"?>
<!-- Generator: Adobe Illustrator 19.0.0, SVG Export Plug-In . SVG Version: 6.00 Build 0)  -->
<svg version="1.1" id="Capa_1" xmlns="http://www.w3.org/2000/svg" xmlns:xlink="http://www.w3.org/1999/xlink" x="0px" y="0px"
	 viewBox="0 0 512 512" style="enable-background:new 0 0 512 512;" xml:space="preserve">
<g>
	<g>
		<path d="M488.468,104.209H23.532C10.557,104.209,0,114.766,0,127.743v70.567c0,6.681,3.44,12.96,8.979,16.386
			c14.456,8.941,23.086,24.382,23.086,41.305c0,16.923-8.63,32.364-23.087,41.305C3.44,300.731,0,307.01,0,313.691v70.567
			c0,12.976,10.557,23.532,23.532,23.532h464.936c12.976,0,23.532-10.557,23.532-23.532V127.743
			C512,114.766,501.443,104.209,488.468,104.209z M497,384.258c0,4.705-3.827,8.532-8.532,8.532H119.21v-0.516
			c0-4.142-3.357-7.5-7.5-7.5s-7.5,3.358-7.5,7.5v0.516H23.532c-4.705,0-8.532-3.828-8.532-8.532v-70.567
			c0-1.525,0.717-2.916,1.869-3.629C35.776,298.368,47.064,278.158,47.064,256c0-22.158-11.288-42.368-30.195-54.062
			c-1.152-0.714-1.869-2.104-1.869-3.63v-70.567c0-4.705,3.827-8.532,8.532-8.532h80.678v0.516c0,4.142,3.357,7.5,7.5,7.5
			s7.5-3.358,7.5-7.5v-0.516h369.258c4.705,0,8.532,3.828,8.532,8.532V384.258z"/>
	</g>
</g>
<g>
	<g>
		<path d="M111.71,240.485c-4.143,0-7.5,3.358-7.5,7.5v16.032c0,4.142,3.357,7.5,7.5,7.5s7.5-3.358,7.5-7.5v-16.032
			C119.21,243.842,115.853,240.485,111.71,240.485z"/>
	</g>
</g>
<g>
	<g>
		<path d="M111.71,144.292c-4.143,0-7.5,3.358-7.5,7.5v16.032c0,4.142,3.357,7.5,7.5,7.5s7.5-3.358,7.5-7.5v-16.032
			C119.21,147.649,115.853,144.292,111.71,144.292z"/>
	</g>
</g>
<g>
	<g>
		<path d="M111.71,192.387c-4.143,0-7.5,3.358-7.5,7.5v16.032c0,4.142,3.357,7.5,7.5,7.5s7.5-3.358,7.5-7.5v-16.032
			C119.21,195.745,115.853,192.387,111.71,192.387z"/>
	</g>
</g>
<g>
	<g>
		<path d="M111.71,288.581c-4.143,0-7.5,3.358-7.5,7.5v16.032c0,4.142,3.357,7.5,7.5,7.5s7.5-3.358,7.5-7.5v-16.032
			C119.21,291.938,115.853,288.581,111.71,288.581z"/>
	</g>
</g>
<g>
	<g>
		<path d="M111.71,336.677c-4.143,0-7.5,3.358-7.5,7.5v16.032c0,4.142,3.357,7.5,7.5,7.5s7.5-3.358,7.5-7.5v-16.032
			C119.21,340.035,115.853,336.677,111.71,336.677z"/>
	</g>
</g>
<g>
	<g>
		<path d="M401.57,230.137c-2.474-7.615-9.235-12.886-17.222-13.427l-44.25-3l-16.526-41.156c-2.984-7.43-10.085-12.23-18.092-12.23
			s-15.107,4.801-18.09,12.23l-16.527,41.156l-44.25,3c-7.987,0.542-14.747,5.812-17.221,13.426
			c-2.475,7.615-0.104,15.852,6.041,20.985l34.035,28.437l-10.821,43.011c-1.953,7.764,0.97,15.822,7.447,20.527
			s15.043,4.996,21.824,0.739l37.563-23.582l37.562,23.581c3.196,2.007,6.788,3.003,10.372,3.003c4.019,0,8.027-1.253,11.452-3.741
			c6.478-4.706,9.4-12.764,7.447-20.528l-10.82-43.011l34.034-28.436C401.673,245.988,404.044,237.751,401.57,230.137z
			 M385.91,239.61l-37.647,31.456c-2.209,1.846-3.167,4.793-2.465,7.585l11.969,47.577c0.669,2.66-0.978,4.196-1.717,4.733
			c-0.74,0.537-2.711,1.627-5.032,0.17l-41.55-26.085c-2.438-1.53-5.537-1.53-7.975,0l-41.551,26.085
			c-2.324,1.459-4.294,0.367-5.032-0.17c-0.739-0.537-2.386-2.073-1.717-4.732l11.97-47.577c0.702-2.792-0.255-5.74-2.465-7.585
			L225.05,239.61c-2.104-1.759-1.675-3.97-1.393-4.839c0.282-0.869,1.234-2.91,3.971-3.095l48.947-3.319
			c2.872-0.195,5.379-2.017,6.452-4.688l18.282-45.526c1.021-2.544,3.257-2.819,4.17-2.819c0.914,0,3.15,0.275,4.172,2.82
			l18.281,45.525c1.073,2.671,3.58,4.493,6.452,4.688l48.947,3.319c2.736,0.186,3.688,2.227,3.972,3.096
			C387.586,235.641,388.015,237.85,385.91,239.61z"/>
	</g>
</g>
<g>
</g>
<g>
</g>
<g>
</g>
<g>
</g>
<g>
</g>
<g>
</g>
<g>
</g>
<g>
</g>
<g>
</g>
<g>
</g>
<g>
</g>
<g>
</g>
<g>
</g>
<g>
</g>
<g>
</g>
</svg>
