<svg height="511pt" viewBox="-66 1 511 511.999" width="511pt" xmlns="http://www.w3.org/2000/svg"><path d="m171.855469 462.460938c0-13.554688-11.023438-24.578126-24.574219-24.578126s-24.578125 11.023438-24.578125 24.578126c0 13.550781 11.027344 24.574218 24.578125 24.574218s24.574219-11.023437 24.574219-24.574218zm-34.152344 0c0-5.28125 4.296875-9.578126 9.578125-9.578126 5.277344 0 9.574219 4.296876 9.574219 9.578126 0 5.277343-4.296875 9.574218-9.574219 9.574218-5.28125 0-9.578125-4.296875-9.578125-9.574218zm0 0"/><path d="m121.660156 37.5625c0 4.140625 3.355469 7.5 7.5 7.5h36.238282c4.144531 0 7.5-3.359375 7.5-7.5 0-4.144531-3.355469-7.5-7.5-7.5h-36.238282c-4.144531 0-7.5 3.355469-7.5 7.5zm0 0"/><path d="m192.988281 235.371094c0 4.140625 3.359375 7.5 7.503907 7.5h109.574218c4.144532 0 7.503906-3.359375 7.503906-7.5 0-4.144532-3.359374-7.503906-7.503906-7.503906h-109.574218c-4.144532 0-7.503907 3.359374-7.503907 7.503906zm0 0"/><path d="m310.066406 263.527344h-109.574218c-4.144532 0-7.503907 3.359375-7.503907 7.5 0 4.144531 3.359375 7.5 7.503907 7.5h109.574218c4.144532 0 7.503906-3.355469 7.503906-7.5 0-4.140625-3.359374-7.5-7.503906-7.5zm0 0"/><path d="m335.117188 203.222656c4.144531 0 7.5-3.359375 7.5-7.5v-31.523437c0-4.140625-3.355469-7.5-7.5-7.5h-6.011719c-4.140625 0-7.5 3.359375-7.5 7.5 0 3.632812 2.582031 6.664062 6.011719 7.351562v24.171875c0 4.140625 3.355468 7.5 7.5 7.5zm0 0"/><path d="m366.570312 165.585938c1.722657 3.761718 6.175782 5.417968 9.941407 3.691406 3.765625-1.722656 5.421875-6.175782 3.695312-9.941406-8.058593-17.589844-25.757812-28.960938-45.089843-28.960938-17.058594 0-32.132813 8.660156-41.058594 21.816406v-110.121094c0-23.195312-18.871094-42.070312-42.066406-42.070312h-87.210938c-4.144531 0-7.5 3.359375-7.5 7.5 0 4.144531 3.355469 7.5 7.5 7.5h87.210938c14.925781 0 27.066406 12.144531 27.066406 27.070312v114.480469h-15.058594c0-15.164062 0-66.851562 0-84.421875 0-6.507812-5.5-12.007812-12.011719-12.007812-10.457031 0-199.210937 0-209.417969 0-6.511718 0-12.011718 5.5-12.011718 12.007812v345.695313c0 6.511719 5.5 12.011719 12.011718 12.011719h209.417969c6.511719 0 12.011719-5.5 12.011719-12.011719v-103.636719h9.191406c.53125 0 1.027344.238281 1.359375.648438l4.507813 5.511718v149.582032c0 14.925781-12.144532 27.070312-27.070313 27.070312h-209.417969c-14.925781 0-27.070312-12.144531-27.070312-27.070312v-427.859376c0-14.925781 12.144531-27.070312 27.070312-27.070312h87.210938c4.140625 0 7.5-3.355469 7.5-7.5 0-4.140625-3.359375-7.5-7.5-7.5h-87.210938c-23.199218 0-42.070312 18.875-42.070312 42.070312v427.859376c0 23.195312 18.871094 42.070312 42.070312 42.070312h209.417969c23.199219 0 42.070313-18.875 42.070313-42.070312v-131.230469l4.816406 5.894531c6.273438 7.667969 18.691406 3.226562 18.691406-6.671875v-23.734375h14.601563c11.507812 0 20.871093-9.363281 20.871093-20.871094v-67.148437c11.820313-4.605469 21.707032-13.660157 27.167969-25.582031 1.722657-3.765626.070313-8.214844-3.695312-9.941407-3.765625-1.722656-8.21875-.070312-9.941407 3.695313-5.710937 12.464844-18.199218 20.207031-31.453124 20.207031-19.066407 0-34.585938-15.511719-34.585938-34.582031 0-18.921875 15.394531-34.585938 34.585938-34.585938 13.484374 0 25.828124 7.929688 31.453124 20.207032zm-117.570312-70.3125h-163.398438v-20.152344h163.398438zm-203.4375-20.152344h25.039062v20.152344h-25.039062zm203.4375 339.714844h-203.4375v-304.558594h203.4375v46.273437h-70.609375c-11.511719 0-20.875 9.363281-20.875 20.871094v115.894531c0 11.507813 9.363281 20.871094 20.875 20.871094h70.609375zm89.039062-185.375v63.855468c0 3.238282-2.632812 5.871094-5.871093 5.871094h-18.136719c-6.320312 0-11.464844 5.140625-11.464844 11.460938v14.757812c-10.324218-12.632812-10.113281-12.375-16.398437-20.066406-2.980469-3.648438-7.722657-6.152344-12.976563-6.152344-10.792968 0-77.859375 0-94.804687 0-3.234375 0-5.871094-2.632812-5.871094-5.871094v-115.894531c0-3.238281 2.636719-5.871094 5.871094-5.871094h107.859375c-.417969 2.441407-.714844 5.578125-.714844 8.410157 0 4.226562.535156 8.332031 1.535156 12.25h-86.574218c-4.144532 0-7.503907 3.359374-7.503907 7.5 0 4.140624 3.359375 7.5 7.503907 7.5h93.226562c9.527344 14.425781 26.132812 23.3125 44.320312 22.25zm0 0"/></svg>