<?xml version="1.0" encoding="UTF-8"?>
<svg width="165px" height="165px" viewBox="0 0 165 165" version="1.1" xmlns="http://www.w3.org/2000/svg" xmlns:xlink="http://www.w3.org/1999/xlink">
    <!-- Generator: Sketch 47 (45396) - http://www.bohemiancoding.com/sketch -->
    <title>font awesome logo copy</title>
    <desc>Created with Sketch.</desc>
    <defs></defs>
    <g id="Pages" stroke="none" stroke-width="1" fill="none" fill-rule="evenodd">
        <g id="Shards---Demo-Page" transform="translate(-1254.000000, -3851.000000)">
            <g id="Icon-Packs---Section" transform="translate(285.000000, 3384.000000)">
                <g id="Card" transform="translate(0.000000, 467.000000)">
                    <g id="Font-Awesome-Icons" transform="translate(885.000000, 0.000000)">
                        <g id="font-awesome-logo-copy" transform="translate(84.000000, 0.000000)">
                            <circle id="Oval-Copy" fill="#17C671" fill-rule="nonzero" cx="82.5" cy="82.5" r="82.5"></circle>
                            <path d="M120.732143,57.2857143 L120.732143,98.0184152 C120.732143,99.5719944 119.939182,100.575333 118.353237,101.02846 C112.721512,102.711504 107.251701,103.553013 101.943638,103.553013 C99.5809034,103.553013 96.0934941,103.075619 91.4813058,102.120815 C86.8691176,101.166011 83.1875138,100.688616 80.436384,100.688616 C75.1283217,100.688616 69.1406584,101.465394 62.4732143,103.018973 L62.4732143,119.428571 L54.7053572,119.428571 L54.7053572,53.0133929 C52.6662845,52.204237 51.0318142,50.8934242 49.8018974,49.0809152 C48.5719805,47.2684061 47.9570313,45.2617298 47.9570313,43.0608259 C47.9570313,40.1154987 48.9927352,37.6071532 51.0641741,35.5357143 C53.1356131,33.4642754 55.6439585,32.4285714 58.5892857,32.4285714 C61.534613,32.4285714 64.0429584,33.4642754 66.1143974,35.5357143 C68.1858363,37.6071532 69.2215402,40.1154987 69.2215402,43.0608259 C69.2215402,45.2617298 68.606591,47.2684061 67.3766741,49.0809152 C66.1467573,50.8934242 64.512287,52.204237 62.4732143,53.0133929 L62.4732143,56.3147321 C68.6227986,54.8906179 74.1735244,54.1785714 79.1255581,54.1785714 C82.3298152,54.1785714 85.5340242,54.4213145 88.7382813,54.906808 C89.1914085,54.9715405 90.995799,55.3356552 94.1515067,55.9991629 C97.3072145,56.6626707 99.7265541,56.9944196 101.409598,56.9944196 C103.901798,56.9944196 106.571972,56.7031279 109.420201,56.1205357 C109.776229,56.0558032 111.070859,55.7159629 113.304129,55.1010045 C115.5374,54.486046 116.977675,54.1785714 117.625,54.1785714 C118.466522,54.1785714 119.194751,54.486046 119.80971,55.1010045 C120.424668,55.7159629 120.732143,56.4441922 120.732143,57.2857143 Z" id="" fill="#FFFFFF"></path>
                        </g>
                    </g>
                </g>
            </g>
        </g>
    </g>
</svg>