<?xml version="1.0" encoding="iso-8859-1"?>
<!-- Generator: Adobe Illustrator 19.0.0, SVG Export Plug-In . SVG Version: 6.00 Build 0)  -->
<svg version="1.1" id="Capa_1" xmlns="http://www.w3.org/2000/svg" xmlns:xlink="http://www.w3.org/1999/xlink" x="0px" y="0px"
	 viewBox="0 0 512 512" style="enable-background:new 0 0 512 512;" xml:space="preserve">
<g>
	<path style="fill:#B1E8FF;" d="M265.928,319.744c2.063-3.359,3.273-7.297,3.273-11.528c0-12.2-9.893-22.091-22.09-22.091
		c-4.424,0-8.543,1.307-11.998,3.547c-0.133-14.876-12.227-26.898-27.133-26.898c-1.805,0-3.568,0.181-5.273,0.517
		c-3.617-7.759-11.48-13.14-20.604-13.14c-10.432,0-19.217,7.034-21.887,16.616c-2.947-1.343-6.219-2.099-9.672-2.099
		c-10.295,0-19.031,6.667-22.137,15.92c-20.111,1.631-35.928,18.457-35.928,38.989c0,0.056,0.004,0.111,0.004,0.167L265.928,319.744
		L265.928,319.744z"/>
	<circle style="fill:#B1E8FF;" cx="259.25" cy="236.31" r="14.905"/>
</g>
<circle style="fill:#D7F7FF;" cx="212.64" cy="181.18" r="16.769"/>
<path style="fill:#FFBB4A;" d="M87.773,333.791l10.844,171.336c0.24,3.78,3.531,6.873,7.322,6.873h149.805
	c3.787,0,7.082-3.092,7.322-6.873l10.844-171.336H87.773z"/>
<path style="fill:#EF5A50;" d="M97.572,488.588l1.045,16.539c0.24,3.78,3.533,6.873,7.322,6.873h149.805
	c3.789,0,7.084-3.092,7.324-6.873l1.043-16.539H97.572z"/>
<path style="opacity:0.1;fill:#231F20;enable-background:new    ;" d="M121.06,505.127l-10.844-171.336H87.773l10.844,171.336
	c0.24,3.78,3.531,6.873,7.322,6.873h22.443C124.592,512,121.301,508.908,121.06,505.127z"/>
<rect x="319.2" y="94" style="fill:#E6E9ED;" width="31.932" height="277.64"/>
<path style="fill:#08375E;" d="M221.623,506.849c0,2.833,2.318,5.151,5.152,5.151h216.793c2.832,0,5.15-2.318,5.15-5.151V457
	H221.623V506.849z"/>
<path style="opacity:0.1;fill:#231F20;enable-background:new    ;" d="M242.904,506.849V457h-21.281v49.849
	c0,2.833,2.318,5.151,5.152,5.151h21.281C245.223,512,242.904,509.682,242.904,506.849z"/>
<g>
	<path style="fill:#63C3EA;" d="M186.594,295.255c-1.297,0-2.61-0.336-3.808-1.044c-3.566-2.106-4.75-6.705-2.644-10.271
		c4.35-7.365,12.361-11.94,20.907-11.94c8.544,0.001,16.554,4.575,20.905,11.936c2.108,3.566,0.926,8.165-2.64,10.273
		c-3.565,2.107-8.164,0.927-10.272-2.64c-1.691-2.861-4.68-4.569-7.994-4.569c-3.313,0-6.301,1.708-7.99,4.568
		C191.659,293.938,189.159,295.255,186.594,295.255z"/>
	<path style="fill:#63C3EA;" d="M138.721,305.934c-1.298,0-2.612-0.337-3.811-1.045c-3.566-2.108-4.747-6.707-2.639-10.273
		c3.508-5.931,9.96-9.616,16.841-9.616c6.883,0.001,13.336,3.685,16.843,9.614c2.108,3.565,0.927,8.165-2.639,10.273
		c-3.561,2.109-8.164,0.928-10.273-2.638c-0.833-1.409-2.303-2.25-3.932-2.25c-1.626,0-3.095,0.841-3.928,2.251
		C143.783,304.618,141.285,305.934,138.721,305.934z"/>
</g>
<path style="fill:#3EAF91;" d="M448.719,460v-19.488c0-2.833-2.318-5.151-5.15-5.151h-81.293c-2.832,0-5.15-2.318-5.15-5.151v-59.95
	c0-2.833-2.318-5.151-5.15-5.151h-33.605c-2.834,0-5.152,2.318-5.152,5.151v59.951c0,2.833-2.316,5.151-5.15,5.151h-81.291
	c-2.834,0-5.152,2.318-5.152,5.151V460H448.719z"/>
<g>
	<path style="fill:#08375E;" d="M278.5,333.791v58.537c0,6.605-5.373,11.979-11.978,11.979H227v15h39.521
		c14.876,0,26.978-12.103,26.978-26.979v-58.537H278.5z"/>
	<path style="fill:#08375E;" d="M146,404.307H95.162c-6.605,0-11.979-5.374-11.979-11.979v-58.537h-15v58.537
		c0,14.876,12.103,26.979,26.979,26.979H146V404.307z"/>
</g>
<path style="fill:#EF5A50;" d="M232.797,414.852c0,6.333-5.181,11.516-11.515,11.516h-70.971c-6.331,0-11.515-5.182-11.515-11.516
	v-4.336c0-6.333,5.184-11.516,11.515-11.516h70.971c6.334,0,11.515,5.182,11.515,11.516L232.797,414.852L232.797,414.852z"/>
<path style="fill:#FCC96C;" d="M298.402,326.506c0,5.666-4.635,10.302-10.301,10.302H73.584c-5.666,0-10.303-4.636-10.303-10.302
	v-2.188c0-5.666,4.637-10.302,10.303-10.302h214.518c5.666,0,10.301,4.636,10.301,10.302L298.402,326.506L298.402,326.506z"/>
<path style="opacity:0.1;fill:#231F20;enable-background:new    ;" d="M91.172,326.506v-2.188c0-5.666,4.635-10.302,10.301-10.302
	H73.584c-5.666,0-10.303,4.636-10.303,10.302v2.188c0,5.666,4.637,10.302,10.303,10.302h27.889
	C95.807,336.808,91.172,332.172,91.172,326.506z"/>
<path style="fill:#3EAF91;" d="M340.492,0H329.85c-5.855,0-10.645,4.79-10.645,10.645v86.219h31.932V10.645
	C351.137,4.79,346.348,0,340.492,0z"/>
<g>
</g>
<g>
</g>
<g>
</g>
<g>
</g>
<g>
</g>
<g>
</g>
<g>
</g>
<g>
</g>
<g>
</g>
<g>
</g>
<g>
</g>
<g>
</g>
<g>
</g>
<g>
</g>
<g>
</g>
</svg>
